<mxfile host="app.diagrams.net" modified="2024-05-22T13:36:50.901Z" agent="Mozilla/5.0 (Windows NT 10.0; Win64; x64) AppleWebKit/537.36 (KHTML, like Gecko) Chrome/124.0.0.0 Safari/537.36" etag="1oTpPBUFV7tmPBK97Fpr" version="24.4.4" type="device">
  <diagram name="PÃ¡gina-1" id="TTp-K46U8V-8WiusqMop">
    <mxGraphModel dx="6034" dy="1740" grid="1" gridSize="10" guides="1" tooltips="1" connect="1" arrows="1" fold="1" page="1" pageScale="1" pageWidth="827" pageHeight="1169" math="0" shadow="0">
      <root>
        <mxCell id="0" />
        <mxCell id="1" parent="0" />
        <mxCell id="qX70TGgQci-9ZfQVWdHT-158" value="" style="group" vertex="1" connectable="0" parent="1">
          <mxGeometry x="180" y="450" width="240" height="70" as="geometry" />
        </mxCell>
        <mxCell id="qX70TGgQci-9ZfQVWdHT-159" value="" style="whiteSpace=wrap;html=1;strokeColor=#494949;fillColor=#494949;container=0;strokeWidth=2;" vertex="1" parent="qX70TGgQci-9ZfQVWdHT-158">
          <mxGeometry y="29.934019844671298" width="240" height="30" as="geometry" />
        </mxCell>
        <mxCell id="qX70TGgQci-9ZfQVWdHT-160" value="&lt;font data-font-src=&quot;https://fonts.googleapis.com/css?family=Nunito&quot; face=&quot;Nunito&quot;&gt;&lt;font color=&quot;#494949&quot; data-font-src=&quot;https://fonts.googleapis.com/css?family=Nunito&quot;&gt;+&amp;nbsp;&lt;/font&gt;&lt;span style=&quot;background-color: initial;&quot;&gt;&lt;font color=&quot;#494949&quot;&gt;visitDot(dot: Dot): any&lt;/font&gt;&lt;/span&gt;&lt;/font&gt;&lt;div&gt;&lt;font face=&quot;Nunito&quot;&gt;&lt;span style=&quot;background-color: initial;&quot;&gt;&lt;font color=&quot;#494949&quot;&gt;+&amp;nbsp;&lt;/font&gt;&lt;/span&gt;&lt;span style=&quot;background-color: initial;&quot;&gt;&lt;font color=&quot;#494949&quot;&gt;visitCircle(circle: Circle): any&lt;/font&gt;&lt;/span&gt;&lt;/font&gt;&lt;/div&gt;&lt;div&gt;&lt;font color=&quot;#494949&quot; face=&quot;Nunito&quot;&gt;&lt;span style=&quot;background-color: initial;&quot;&gt;+&amp;nbsp;&lt;/span&gt;&lt;span style=&quot;background-color: initial;&quot;&gt;visitRectangle(rectangle: Rectangle): any&lt;/span&gt;&lt;/font&gt;&lt;/div&gt;" style="rounded=1;whiteSpace=wrap;html=1;arcSize=6;fillColor=#F7F7F7;strokeColor=#494949;align=left;spacingLeft=2;container=0;strokeWidth=2;absoluteArcSize=1;" vertex="1" parent="qX70TGgQci-9ZfQVWdHT-158">
          <mxGeometry y="40" width="240" height="50" as="geometry" />
        </mxCell>
        <mxCell id="qX70TGgQci-9ZfQVWdHT-161" value="&lt;font face=&quot;Nunito&quot; color=&quot;#494949&quot;&gt;&amp;lt;&amp;lt;interface&amp;gt;&amp;gt;&lt;br&gt;&lt;b&gt;Visitor&lt;/b&gt;&lt;br&gt;&lt;/font&gt;" style="rounded=1;whiteSpace=wrap;html=1;arcSize=6;fillColor=#F7F7F7;strokeColor=#494949;container=0;strokeWidth=2;absoluteArcSize=1;" vertex="1" parent="qX70TGgQci-9ZfQVWdHT-158">
          <mxGeometry width="240" height="40" as="geometry" />
        </mxCell>
        <mxCell id="qX70TGgQci-9ZfQVWdHT-162" value="" style="group" vertex="1" connectable="0" parent="1">
          <mxGeometry x="890" y="450" width="160" height="70" as="geometry" />
        </mxCell>
        <mxCell id="qX70TGgQci-9ZfQVWdHT-163" value="" style="whiteSpace=wrap;html=1;strokeColor=#494949;fillColor=#494949;container=0;strokeWidth=2;" vertex="1" parent="qX70TGgQci-9ZfQVWdHT-162">
          <mxGeometry y="29.934019844671298" width="160" height="30" as="geometry" />
        </mxCell>
        <mxCell id="qX70TGgQci-9ZfQVWdHT-164" value="&lt;font data-font-src=&quot;https://fonts.googleapis.com/css?family=Nunito&quot; face=&quot;Nunito&quot;&gt;&lt;font color=&quot;#494949&quot; data-font-src=&quot;https://fonts.googleapis.com/css?family=Nunito&quot;&gt;+&amp;nbsp;&lt;/font&gt;&lt;/font&gt;&lt;span style=&quot;background-color: initial;&quot;&gt;&lt;font face=&quot;Nunito&quot; color=&quot;#494949&quot;&gt;accept(visitor: Visitor): any&lt;/font&gt;&lt;/span&gt;" style="rounded=1;whiteSpace=wrap;html=1;arcSize=6;fillColor=#F7F7F7;strokeColor=#494949;align=left;spacingLeft=2;container=0;strokeWidth=2;absoluteArcSize=1;" vertex="1" parent="qX70TGgQci-9ZfQVWdHT-162">
          <mxGeometry y="40" width="160" height="30" as="geometry" />
        </mxCell>
        <mxCell id="qX70TGgQci-9ZfQVWdHT-165" value="&lt;font face=&quot;Nunito&quot; color=&quot;#494949&quot;&gt;&amp;lt;&amp;lt;interface&amp;gt;&amp;gt;&lt;br&gt;&lt;b&gt;Element&lt;/b&gt;&lt;/font&gt;" style="rounded=1;whiteSpace=wrap;html=1;arcSize=6;fillColor=#F7F7F7;strokeColor=#494949;container=0;strokeWidth=2;absoluteArcSize=1;" vertex="1" parent="qX70TGgQci-9ZfQVWdHT-162">
          <mxGeometry width="160" height="40" as="geometry" />
        </mxCell>
        <mxCell id="qX70TGgQci-9ZfQVWdHT-187" value="" style="group" vertex="1" connectable="0" parent="1">
          <mxGeometry x="180" y="627.57" width="240" height="90" as="geometry" />
        </mxCell>
        <mxCell id="qX70TGgQci-9ZfQVWdHT-183" value="" style="whiteSpace=wrap;html=1;fillColor=#494949;strokeColor=#494949;container=0;strokeWidth=2;" vertex="1" parent="qX70TGgQci-9ZfQVWdHT-187">
          <mxGeometry y="27.499999999999982" width="240" height="42.49999999999997" as="geometry" />
        </mxCell>
        <mxCell id="qX70TGgQci-9ZfQVWdHT-184" value="&lt;div&gt;&lt;font face=&quot;Nunito&quot; color=&quot;#494949&quot;&gt;&lt;b&gt;JsonExportVisitor&lt;/b&gt;&lt;/font&gt;&lt;/div&gt;" style="rounded=1;whiteSpace=wrap;html=1;arcSize=5;fillColor=#F7F7F7;strokeColor=#494949;strokeWidth=2;container=0;absoluteArcSize=1;" vertex="1" parent="qX70TGgQci-9ZfQVWdHT-187">
          <mxGeometry width="240" height="29.99999999999998" as="geometry" />
        </mxCell>
        <mxCell id="qX70TGgQci-9ZfQVWdHT-185" value="&lt;div&gt;&lt;font face=&quot;Nunito&quot;&gt;...&lt;/font&gt;&lt;/div&gt;" style="rounded=1;whiteSpace=wrap;html=1;arcSize=6;fillColor=#F7F7F7;strokeColor=#494949;align=left;perimeterSpacing=0;spacingLeft=2;fontColor=#494949;strokeWidth=2;container=0;absoluteArcSize=1;" vertex="1" parent="qX70TGgQci-9ZfQVWdHT-187">
          <mxGeometry y="29.99999999999998" width="240" height="29.99999999999998" as="geometry" />
        </mxCell>
        <mxCell id="qX70TGgQci-9ZfQVWdHT-186" value="&lt;div&gt;&lt;font face=&quot;Nunito&quot; color=&quot;#494949&quot;&gt;+ visitDot(dot: Dot): any&lt;/font&gt;&lt;/div&gt;&lt;div&gt;&lt;font face=&quot;Nunito&quot; color=&quot;#494949&quot;&gt;+&amp;nbsp;&lt;/font&gt;&lt;span style=&quot;background-color: initial;&quot;&gt;&lt;font face=&quot;Nunito&quot; color=&quot;#494949&quot;&gt;visitCircle(circle: Circle): any&lt;/font&gt;&lt;/span&gt;&lt;/div&gt;&lt;div&gt;&lt;span style=&quot;background-color: initial;&quot;&gt;&lt;font face=&quot;Nunito&quot; color=&quot;#494949&quot;&gt;+&amp;nbsp;&lt;/font&gt;&lt;/span&gt;&lt;span style=&quot;background-color: initial;&quot;&gt;&lt;font face=&quot;Nunito&quot; color=&quot;#494949&quot;&gt;visitRectangle(rectangle: Rectangle): any&amp;nbsp;&lt;/font&gt;&lt;/span&gt;&lt;/div&gt;" style="rounded=1;whiteSpace=wrap;html=1;arcSize=6;fillColor=#F7F7F7;strokeColor=#494949;align=left;spacingLeft=2;container=0;strokeWidth=2;absoluteArcSize=1;" vertex="1" parent="qX70TGgQci-9ZfQVWdHT-187">
          <mxGeometry y="60.000000000000014" width="240" height="49.999999999999964" as="geometry" />
        </mxCell>
        <mxCell id="qX70TGgQci-9ZfQVWdHT-193" value="" style="group" vertex="1" connectable="0" parent="1">
          <mxGeometry x="245" y="280" width="110" height="95" as="geometry" />
        </mxCell>
        <mxCell id="qX70TGgQci-9ZfQVWdHT-189" value="" style="whiteSpace=wrap;html=1;fillColor=#494949;strokeColor=#494949;container=0;strokeWidth=2;" vertex="1" parent="qX70TGgQci-9ZfQVWdHT-193">
          <mxGeometry y="17.49999999999999" width="110" height="72.49999999999996" as="geometry" />
        </mxCell>
        <mxCell id="qX70TGgQci-9ZfQVWdHT-190" value="&lt;div&gt;&lt;font face=&quot;Nunito&quot; color=&quot;#494949&quot;&gt;&lt;b&gt;Application&lt;/b&gt;&lt;/font&gt;&lt;/div&gt;" style="rounded=1;whiteSpace=wrap;html=1;arcSize=5;fillColor=#F7F7F7;strokeColor=#494949;strokeWidth=2;container=0;absoluteArcSize=1;" vertex="1" parent="qX70TGgQci-9ZfQVWdHT-193">
          <mxGeometry width="110" height="29.999999999999982" as="geometry" />
        </mxCell>
        <mxCell id="qX70TGgQci-9ZfQVWdHT-191" value="&lt;div&gt;&lt;font face=&quot;Nunito&quot;&gt;- shapes: Shape[]&lt;/font&gt;&lt;/div&gt;&lt;div&gt;&lt;font face=&quot;Nunito&quot;&gt;- visitor: Visitor&lt;/font&gt;&lt;/div&gt;" style="rounded=1;whiteSpace=wrap;html=1;arcSize=6;fillColor=#F7F7F7;strokeColor=#494949;align=left;perimeterSpacing=0;spacingLeft=2;fontColor=#494949;strokeWidth=2;container=0;absoluteArcSize=1;" vertex="1" parent="qX70TGgQci-9ZfQVWdHT-193">
          <mxGeometry y="29.999999999999982" width="110" height="34.99999999999998" as="geometry" />
        </mxCell>
        <mxCell id="qX70TGgQci-9ZfQVWdHT-192" value="&lt;div&gt;&lt;font face=&quot;Nunito&quot; color=&quot;#494949&quot;&gt;+ export(): any&lt;/font&gt;&lt;/div&gt;" style="rounded=1;whiteSpace=wrap;html=1;arcSize=6;fillColor=#F7F7F7;strokeColor=#494949;align=left;spacingLeft=2;container=0;strokeWidth=2;absoluteArcSize=1;" vertex="1" parent="qX70TGgQci-9ZfQVWdHT-193">
          <mxGeometry y="65.00000000000001" width="110" height="29.999999999999982" as="geometry" />
        </mxCell>
        <mxCell id="qX70TGgQci-9ZfQVWdHT-195" style="edgeStyle=orthogonalEdgeStyle;rounded=0;orthogonalLoop=1;jettySize=auto;html=1;entryX=0.5;entryY=1;entryDx=0;entryDy=0;exitX=1;exitY=0.5;exitDx=0;exitDy=0;strokeColor=#666666;strokeWidth=2;align=center;verticalAlign=middle;fontFamily=Helvetica;fontSource=https%3A%2F%2Ffonts.googleapis.com%2Fcss%3Ffamily%3DNunito;fontSize=11;fontColor=default;labelBackgroundColor=default;startSize=10;endArrow=block;endFill=0;endSize=10;targetPerimeterSpacing=0;dashed=1;" edge="1" parent="1" source="qX70TGgQci-9ZfQVWdHT-156" target="qX70TGgQci-9ZfQVWdHT-164">
          <mxGeometry relative="1" as="geometry">
            <Array as="points">
              <mxPoint x="970" y="865" />
            </Array>
          </mxGeometry>
        </mxCell>
        <mxCell id="qX70TGgQci-9ZfQVWdHT-196" value="" style="group" vertex="1" connectable="0" parent="1">
          <mxGeometry x="655" y="990" width="190" height="95" as="geometry" />
        </mxCell>
        <mxCell id="qX70TGgQci-9ZfQVWdHT-177" value="" style="whiteSpace=wrap;html=1;fillColor=#494949;strokeColor=#494949;container=0;strokeWidth=2;" vertex="1" parent="qX70TGgQci-9ZfQVWdHT-196">
          <mxGeometry y="27.5" width="190" height="60" as="geometry" />
        </mxCell>
        <mxCell id="qX70TGgQci-9ZfQVWdHT-178" value="&lt;div&gt;&lt;font face=&quot;Nunito&quot; color=&quot;#494949&quot;&gt;&lt;b&gt;Dot&lt;/b&gt;&lt;/font&gt;&lt;/div&gt;" style="rounded=1;whiteSpace=wrap;html=1;arcSize=5;fillColor=#F7F7F7;strokeColor=#494949;strokeWidth=2;container=0;absoluteArcSize=1;" vertex="1" parent="qX70TGgQci-9ZfQVWdHT-196">
          <mxGeometry width="190" height="30" as="geometry" />
        </mxCell>
        <mxCell id="qX70TGgQci-9ZfQVWdHT-179" value="&lt;div&gt;&lt;font face=&quot;Nunito&quot;&gt;- readonly coordinateX: number&lt;/font&gt;&lt;/div&gt;&lt;div&gt;&lt;font face=&quot;Nunito&quot;&gt;- readonly CoordinateY: number&lt;/font&gt;&lt;/div&gt;" style="rounded=1;whiteSpace=wrap;html=1;arcSize=6;fillColor=#F7F7F7;strokeColor=#494949;align=left;perimeterSpacing=0;spacingLeft=2;fontColor=#494949;strokeWidth=2;container=0;absoluteArcSize=1;" vertex="1" parent="qX70TGgQci-9ZfQVWdHT-196">
          <mxGeometry y="30" width="190" height="35" as="geometry" />
        </mxCell>
        <mxCell id="qX70TGgQci-9ZfQVWdHT-180" value="&lt;font face=&quot;Nunito&quot; color=&quot;#494949&quot;&gt;+&amp;nbsp;&lt;/font&gt;&lt;span style=&quot;background-color: initial;&quot;&gt;&lt;font face=&quot;Nunito&quot; color=&quot;#494949&quot;&gt;accept(visitor: Visitor): any&lt;/font&gt;&lt;/span&gt;" style="rounded=1;whiteSpace=wrap;html=1;arcSize=6;fillColor=#F7F7F7;strokeColor=#494949;align=left;spacingLeft=2;container=0;strokeWidth=2;absoluteArcSize=1;" vertex="1" parent="qX70TGgQci-9ZfQVWdHT-196">
          <mxGeometry y="65" width="190" height="30" as="geometry" />
        </mxCell>
        <mxCell id="qX70TGgQci-9ZfQVWdHT-197" style="edgeStyle=orthogonalEdgeStyle;rounded=0;orthogonalLoop=1;jettySize=auto;html=1;entryX=0.5;entryY=1;entryDx=0;entryDy=0;strokeColor=#666666;strokeWidth=2;align=center;verticalAlign=middle;fontFamily=Helvetica;fontSource=https%3A%2F%2Ffonts.googleapis.com%2Fcss%3Ffamily%3DNunito;fontSize=11;fontColor=default;labelBackgroundColor=default;startSize=10;endArrow=block;endFill=0;endSize=10;targetPerimeterSpacing=0;dashed=1;" edge="1" parent="1" source="qX70TGgQci-9ZfQVWdHT-179" target="qX70TGgQci-9ZfQVWdHT-164">
          <mxGeometry relative="1" as="geometry" />
        </mxCell>
        <mxCell id="qX70TGgQci-9ZfQVWdHT-198" value="" style="group" vertex="1" connectable="0" parent="1">
          <mxGeometry x="650" y="610.0699999999999" width="200" height="125.00000000000006" as="geometry" />
        </mxCell>
        <mxCell id="qX70TGgQci-9ZfQVWdHT-167" value="" style="whiteSpace=wrap;html=1;fillColor=#494949;strokeColor=#494949;container=0;strokeWidth=2;" vertex="1" parent="qX70TGgQci-9ZfQVWdHT-198">
          <mxGeometry y="27.5" width="200" height="92.5" as="geometry" />
        </mxCell>
        <mxCell id="qX70TGgQci-9ZfQVWdHT-168" value="&lt;div&gt;&lt;font face=&quot;Nunito&quot; color=&quot;#494949&quot;&gt;&lt;b&gt;Rectangle&lt;/b&gt;&lt;/font&gt;&lt;/div&gt;" style="rounded=1;whiteSpace=wrap;html=1;arcSize=5;fillColor=#F7F7F7;strokeColor=#494949;strokeWidth=2;container=0;absoluteArcSize=1;" vertex="1" parent="qX70TGgQci-9ZfQVWdHT-198">
          <mxGeometry width="200" height="30" as="geometry" />
        </mxCell>
        <mxCell id="qX70TGgQci-9ZfQVWdHT-169" value="&lt;div&gt;&lt;font face=&quot;Nunito&quot;&gt;- leftTopSideCoordinateX: number&lt;/font&gt;&lt;/div&gt;&lt;div&gt;&lt;font face=&quot;Nunito&quot;&gt;- leftTopSideCoordinateY: number&lt;/font&gt;&lt;/div&gt;&lt;div&gt;&lt;font face=&quot;Nunito&quot;&gt;- height: number&lt;/font&gt;&lt;/div&gt;&lt;div&gt;&lt;font face=&quot;Nunito&quot;&gt;- length: number&lt;/font&gt;&lt;/div&gt;" style="rounded=1;whiteSpace=wrap;html=1;arcSize=6;fillColor=#F7F7F7;strokeColor=#494949;align=left;perimeterSpacing=0;spacingLeft=2;fontColor=#494949;strokeWidth=2;container=0;absoluteArcSize=1;" vertex="1" parent="qX70TGgQci-9ZfQVWdHT-198">
          <mxGeometry y="30" width="200" height="65" as="geometry" />
        </mxCell>
        <mxCell id="qX70TGgQci-9ZfQVWdHT-170" value="&lt;font face=&quot;Nunito&quot; color=&quot;#494949&quot;&gt;+&amp;nbsp;&lt;/font&gt;&lt;span style=&quot;background-color: initial;&quot;&gt;&lt;font face=&quot;Nunito&quot; color=&quot;#494949&quot;&gt;accept(visitor: Visitor): any&lt;/font&gt;&lt;/span&gt;" style="rounded=1;whiteSpace=wrap;html=1;arcSize=6;fillColor=#F7F7F7;strokeColor=#494949;align=left;spacingLeft=2;container=0;strokeWidth=2;absoluteArcSize=1;" vertex="1" parent="qX70TGgQci-9ZfQVWdHT-198">
          <mxGeometry y="95.00000000000006" width="200" height="30" as="geometry" />
        </mxCell>
        <mxCell id="qX70TGgQci-9ZfQVWdHT-199" style="edgeStyle=orthogonalEdgeStyle;rounded=0;orthogonalLoop=1;jettySize=auto;html=1;entryX=0.5;entryY=1;entryDx=0;entryDy=0;strokeColor=#666666;strokeWidth=2;align=center;verticalAlign=middle;fontFamily=Helvetica;fontSource=https%3A%2F%2Ffonts.googleapis.com%2Fcss%3Ffamily%3DNunito;fontSize=11;fontColor=default;labelBackgroundColor=default;startSize=10;endArrow=block;endFill=0;endSize=10;targetPerimeterSpacing=0;dashed=1;" edge="1" parent="1" source="qX70TGgQci-9ZfQVWdHT-169" target="qX70TGgQci-9ZfQVWdHT-164">
          <mxGeometry relative="1" as="geometry" />
        </mxCell>
        <mxCell id="qX70TGgQci-9ZfQVWdHT-200" value="" style="group" vertex="1" connectable="0" parent="1">
          <mxGeometry x="660" y="810" width="180" height="110" as="geometry" />
        </mxCell>
        <mxCell id="qX70TGgQci-9ZfQVWdHT-154" value="" style="whiteSpace=wrap;html=1;fillColor=#494949;strokeColor=#494949;container=0;strokeWidth=2;" vertex="1" parent="qX70TGgQci-9ZfQVWdHT-200">
          <mxGeometry y="27.5" width="180" height="60" as="geometry" />
        </mxCell>
        <mxCell id="qX70TGgQci-9ZfQVWdHT-155" value="&lt;div&gt;&lt;font face=&quot;Nunito&quot; color=&quot;#494949&quot;&gt;&lt;b&gt;Circle&lt;/b&gt;&lt;/font&gt;&lt;/div&gt;" style="rounded=1;whiteSpace=wrap;html=1;arcSize=5;fillColor=#F7F7F7;strokeColor=#494949;strokeWidth=2;container=0;absoluteArcSize=1;" vertex="1" parent="qX70TGgQci-9ZfQVWdHT-200">
          <mxGeometry width="180" height="30" as="geometry" />
        </mxCell>
        <mxCell id="qX70TGgQci-9ZfQVWdHT-156" value="&lt;div&gt;&lt;font face=&quot;Nunito&quot;&gt;- centerCoordinateX: number&lt;/font&gt;&lt;/div&gt;&lt;div&gt;&lt;font face=&quot;Nunito&quot;&gt;- centerCoordinateY: number&lt;/font&gt;&lt;/div&gt;&lt;div&gt;&lt;font face=&quot;Nunito&quot;&gt;- radius: number&lt;/font&gt;&lt;/div&gt;" style="rounded=1;whiteSpace=wrap;html=1;arcSize=6;fillColor=#F7F7F7;strokeColor=#494949;align=left;perimeterSpacing=0;spacingLeft=2;fontColor=#494949;strokeWidth=2;container=0;absoluteArcSize=1;" vertex="1" parent="qX70TGgQci-9ZfQVWdHT-200">
          <mxGeometry y="30" width="180" height="50" as="geometry" />
        </mxCell>
        <mxCell id="qX70TGgQci-9ZfQVWdHT-157" value="&lt;font face=&quot;Nunito&quot; color=&quot;#494949&quot;&gt;+&amp;nbsp;&lt;/font&gt;&lt;span style=&quot;background-color: initial;&quot;&gt;&lt;font face=&quot;Nunito&quot; color=&quot;#494949&quot;&gt;accept(visitor: Visitor): any&lt;/font&gt;&lt;/span&gt;" style="rounded=1;whiteSpace=wrap;html=1;arcSize=6;fillColor=#F7F7F7;strokeColor=#494949;align=left;spacingLeft=2;container=0;strokeWidth=2;absoluteArcSize=1;" vertex="1" parent="qX70TGgQci-9ZfQVWdHT-200">
          <mxGeometry y="80" width="180" height="30" as="geometry" />
        </mxCell>
        <mxCell id="qX70TGgQci-9ZfQVWdHT-201" style="edgeStyle=orthogonalEdgeStyle;rounded=0;orthogonalLoop=1;jettySize=auto;html=1;dashed=1;strokeColor=#666666;strokeWidth=2;align=center;verticalAlign=middle;fontFamily=Helvetica;fontSource=https%3A%2F%2Ffonts.googleapis.com%2Fcss%3Ffamily%3DNunito;fontSize=11;fontColor=default;labelBackgroundColor=default;startSize=10;endArrow=open;endFill=0;endSize=10;targetPerimeterSpacing=0;" edge="1" parent="1" source="qX70TGgQci-9ZfQVWdHT-165" target="qX70TGgQci-9ZfQVWdHT-161">
          <mxGeometry relative="1" as="geometry" />
        </mxCell>
        <mxCell id="qX70TGgQci-9ZfQVWdHT-202" style="edgeStyle=orthogonalEdgeStyle;rounded=0;orthogonalLoop=1;jettySize=auto;html=1;entryX=0;entryY=0.5;entryDx=0;entryDy=0;dashed=1;strokeColor=#666666;strokeWidth=2;align=center;verticalAlign=middle;fontFamily=Helvetica;fontSource=https%3A%2F%2Ffonts.googleapis.com%2Fcss%3Ffamily%3DNunito;fontSize=11;fontColor=default;labelBackgroundColor=default;startSize=10;endArrow=open;endFill=0;endSize=10;targetPerimeterSpacing=0;" edge="1" parent="1" source="qX70TGgQci-9ZfQVWdHT-160" target="qX70TGgQci-9ZfQVWdHT-169">
          <mxGeometry relative="1" as="geometry">
            <Array as="points">
              <mxPoint x="530" y="515" />
              <mxPoint x="530" y="673" />
            </Array>
          </mxGeometry>
        </mxCell>
        <mxCell id="qX70TGgQci-9ZfQVWdHT-203" style="edgeStyle=orthogonalEdgeStyle;rounded=0;orthogonalLoop=1;jettySize=auto;html=1;entryX=0;entryY=0.5;entryDx=0;entryDy=0;dashed=1;strokeColor=#666666;strokeWidth=2;align=center;verticalAlign=middle;fontFamily=Helvetica;fontSource=https%3A%2F%2Ffonts.googleapis.com%2Fcss%3Ffamily%3DNunito;fontSize=11;fontColor=default;labelBackgroundColor=default;startSize=10;endArrow=open;endFill=0;endSize=10;targetPerimeterSpacing=0;" edge="1" parent="1" source="qX70TGgQci-9ZfQVWdHT-160" target="qX70TGgQci-9ZfQVWdHT-156">
          <mxGeometry relative="1" as="geometry">
            <Array as="points">
              <mxPoint x="530" y="515" />
              <mxPoint x="530" y="865" />
            </Array>
          </mxGeometry>
        </mxCell>
        <mxCell id="qX70TGgQci-9ZfQVWdHT-204" style="edgeStyle=orthogonalEdgeStyle;rounded=0;orthogonalLoop=1;jettySize=auto;html=1;entryX=0;entryY=0.5;entryDx=0;entryDy=0;dashed=1;strokeColor=#666666;strokeWidth=2;align=center;verticalAlign=middle;fontFamily=Helvetica;fontSource=https%3A%2F%2Ffonts.googleapis.com%2Fcss%3Ffamily%3DNunito;fontSize=11;fontColor=default;labelBackgroundColor=default;startSize=10;endArrow=open;endFill=0;endSize=10;targetPerimeterSpacing=0;" edge="1" parent="1" source="qX70TGgQci-9ZfQVWdHT-160" target="qX70TGgQci-9ZfQVWdHT-179">
          <mxGeometry relative="1" as="geometry">
            <Array as="points">
              <mxPoint x="530" y="515" />
              <mxPoint x="530" y="1038" />
            </Array>
          </mxGeometry>
        </mxCell>
        <mxCell id="qX70TGgQci-9ZfQVWdHT-205" value="&lt;div style=&quot;line-height: 26px;&quot;&gt;&lt;div style=&quot;line-height: 26px;&quot;&gt;&lt;div style=&quot;line-height: 26px;&quot;&gt;&lt;div style=&quot;line-height: 147%;&quot;&gt;&lt;div style=&quot;line-height: 147%;&quot;&gt;&lt;div style=&quot;line-height: 137%;&quot;&gt;&lt;div style=&quot;line-height: 137%;&quot;&gt;&lt;div style=&quot;line-height: 137%;&quot;&gt;&lt;div style=&quot;line-height: 137%;&quot;&gt;&lt;div style=&quot;line-height: 137%;&quot;&gt;&lt;font data-font-src=&quot;https://fonts.googleapis.com/css?family=Fira+Code+Medium&quot; face=&quot;Fira Code Medium&quot;&gt;return visitor.visitDot(this);&lt;/font&gt;&lt;/div&gt;&lt;/div&gt;&lt;/div&gt;&lt;/div&gt;&lt;/div&gt;&lt;/div&gt;&lt;/div&gt;&lt;/div&gt;&lt;/div&gt;&lt;/div&gt;" style="rounded=0;whiteSpace=wrap;html=1;fontColor=#494949;strokeColor=#C3C3C3;fillColor=#EBEBEB;align=left;verticalAlign=middle;spacingLeft=2;spacingRight=1;strokeWidth=2;" vertex="1" parent="1">
          <mxGeometry x="632.5" y="1169" width="235" height="30" as="geometry" />
        </mxCell>
        <mxCell id="qX70TGgQci-9ZfQVWdHT-206" style="edgeStyle=orthogonalEdgeStyle;rounded=0;orthogonalLoop=1;jettySize=auto;html=1;entryX=0.5;entryY=0;entryDx=0;entryDy=0;dashed=1;strokeColor=#C3C3C3;strokeWidth=2;align=center;verticalAlign=middle;fontFamily=Helvetica;fontSource=https%3A%2F%2Ffonts.googleapis.com%2Fcss%3Ffamily%3DFira%2BCode%2BMedium;fontSize=11;fontColor=default;labelBackgroundColor=default;startArrow=none;startFill=0;startSize=8;endArrow=none;endFill=0;endSize=8;sourcePerimeterSpacing=1;targetPerimeterSpacing=1;" edge="1" parent="1" source="qX70TGgQci-9ZfQVWdHT-180" target="qX70TGgQci-9ZfQVWdHT-205">
          <mxGeometry relative="1" as="geometry" />
        </mxCell>
        <mxCell id="qX70TGgQci-9ZfQVWdHT-207" style="edgeStyle=orthogonalEdgeStyle;rounded=0;orthogonalLoop=1;jettySize=auto;html=1;entryX=0.5;entryY=1;entryDx=0;entryDy=0;dashed=1;strokeColor=#666666;strokeWidth=2;align=center;verticalAlign=middle;fontFamily=Helvetica;fontSource=https%3A%2F%2Ffonts.googleapis.com%2Fcss%3Ffamily%3DNunito;fontSize=11;fontColor=default;labelBackgroundColor=default;startSize=10;endArrow=block;endFill=0;endSize=10;targetPerimeterSpacing=0;" edge="1" parent="1" source="qX70TGgQci-9ZfQVWdHT-184" target="qX70TGgQci-9ZfQVWdHT-160">
          <mxGeometry relative="1" as="geometry" />
        </mxCell>
        <mxCell id="qX70TGgQci-9ZfQVWdHT-208" style="edgeStyle=orthogonalEdgeStyle;rounded=0;orthogonalLoop=1;jettySize=auto;html=1;entryX=1;entryY=0.5;entryDx=0;entryDy=0;exitX=0.5;exitY=0;exitDx=0;exitDy=0;dashed=1;strokeColor=#666666;strokeWidth=2;align=center;verticalAlign=middle;fontFamily=Helvetica;fontSource=https%3A%2F%2Ffonts.googleapis.com%2Fcss%3Ffamily%3DNunito;fontSize=11;fontColor=default;labelBackgroundColor=default;startSize=10;endArrow=none;endFill=0;endSize=10;targetPerimeterSpacing=0;startArrow=open;startFill=0;" edge="1" parent="1" source="qX70TGgQci-9ZfQVWdHT-165" target="qX70TGgQci-9ZfQVWdHT-191">
          <mxGeometry relative="1" as="geometry" />
        </mxCell>
        <mxCell id="qX70TGgQci-9ZfQVWdHT-209" style="edgeStyle=orthogonalEdgeStyle;rounded=0;orthogonalLoop=1;jettySize=auto;html=1;entryX=0.5;entryY=1;entryDx=0;entryDy=0;exitX=0.5;exitY=0;exitDx=0;exitDy=0;dashed=1;strokeColor=#666666;strokeWidth=2;align=center;verticalAlign=middle;fontFamily=Helvetica;fontSource=https%3A%2F%2Ffonts.googleapis.com%2Fcss%3Ffamily%3DNunito;fontSize=11;fontColor=default;labelBackgroundColor=default;startSize=10;endArrow=none;endFill=0;endSize=10;targetPerimeterSpacing=0;startArrow=open;startFill=0;" edge="1" parent="1" source="qX70TGgQci-9ZfQVWdHT-161" target="qX70TGgQci-9ZfQVWdHT-192">
          <mxGeometry relative="1" as="geometry" />
        </mxCell>
        <mxCell id="qX70TGgQci-9ZfQVWdHT-211" style="edgeStyle=orthogonalEdgeStyle;rounded=0;orthogonalLoop=1;jettySize=auto;html=1;entryX=0;entryY=0.25;entryDx=0;entryDy=0;dashed=1;strokeColor=#C3C3C3;strokeWidth=2;align=center;verticalAlign=middle;fontFamily=Helvetica;fontSource=https%3A%2F%2Ffonts.googleapis.com%2Fcss%3Ffamily%3DFira%2BCode%2BMedium;fontSize=11;fontColor=default;labelBackgroundColor=default;startArrow=none;startFill=0;startSize=8;endArrow=none;endFill=0;endSize=8;sourcePerimeterSpacing=1;targetPerimeterSpacing=1;" edge="1" parent="1" source="qX70TGgQci-9ZfQVWdHT-210" target="qX70TGgQci-9ZfQVWdHT-186">
          <mxGeometry relative="1" as="geometry" />
        </mxCell>
        <mxCell id="qX70TGgQci-9ZfQVWdHT-210" value="&lt;div style=&quot;line-height: 26px;&quot;&gt;&lt;div style=&quot;line-height: 26px;&quot;&gt;&lt;div style=&quot;line-height: 26px;&quot;&gt;&lt;div style=&quot;line-height: 147%;&quot;&gt;&lt;div style=&quot;line-height: 147%;&quot;&gt;&lt;div style=&quot;line-height: 137%;&quot;&gt;&lt;div style=&quot;line-height: 137%;&quot;&gt;&lt;div style=&quot;line-height: 137%;&quot;&gt;&lt;div style=&quot;line-height: 137%;&quot;&gt;&lt;div style=&quot;line-height: 137%;&quot;&gt;&lt;div style=&quot;line-height: 137%;&quot;&gt;return { dot: { coordinates: [dot.coordinateX, dot.CoordinateY] } };&lt;/div&gt;&lt;/div&gt;&lt;/div&gt;&lt;/div&gt;&lt;/div&gt;&lt;/div&gt;&lt;/div&gt;&lt;/div&gt;&lt;/div&gt;&lt;/div&gt;&lt;/div&gt;" style="rounded=0;whiteSpace=wrap;html=1;fontColor=#494949;strokeColor=#C3C3C3;fillColor=#EBEBEB;align=left;verticalAlign=middle;spacingLeft=2;spacingRight=1;strokeWidth=2;fontFamily=Fira Code Medium;fontSource=https%3A%2F%2Ffonts.googleapis.com%2Fcss%3Ffamily%3DFira%2BCode%2BMedium;" vertex="1" parent="1">
          <mxGeometry x="-490" y="686" width="520" height="30" as="geometry" />
        </mxCell>
        <mxCell id="qX70TGgQci-9ZfQVWdHT-212" value="&lt;div style=&quot;line-height: 26px;&quot;&gt;&lt;div style=&quot;line-height: 26px;&quot;&gt;&lt;div style=&quot;line-height: 26px;&quot;&gt;&lt;div style=&quot;line-height: 147%;&quot;&gt;&lt;div style=&quot;line-height: 147%;&quot;&gt;&lt;div style=&quot;line-height: 137%;&quot;&gt;&lt;div style=&quot;line-height: 137%;&quot;&gt;&lt;div style=&quot;line-height: 137%;&quot;&gt;&lt;div style=&quot;line-height: 137%;&quot;&gt;&lt;div style=&quot;line-height: 137%;&quot;&gt;&lt;div style=&quot;line-height: 137%;&quot;&gt;&lt;font face=&quot;Fira Code Medium&quot; data-font-src=&quot;https://fonts.googleapis.com/css?family=Fira+Code+Medium&quot;&gt;const visitorOutput: any[] = [];&lt;/font&gt;&lt;/div&gt;&lt;div style=&quot;line-height: 137%;&quot;&gt;&lt;font data-font-src=&quot;https://fonts.googleapis.com/css?family=Fira+Code+Medium&quot; face=&quot;Fira Code Medium&quot;&gt;for (const shape of this.shapes) {&lt;/font&gt;&lt;/div&gt;&lt;div style=&quot;line-height: 137%;&quot;&gt;&lt;span style=&quot;font-family: &amp;quot;Fira Code Medium&amp;quot;; background-color: initial;&quot;&gt;&amp;nbsp; &amp;nbsp; visitorOutput.push(shape.accept(this.visitor));&lt;/span&gt;&lt;/div&gt;&lt;div style=&quot;line-height: 137%;&quot;&gt;&lt;span style=&quot;background-color: initial;&quot;&gt;&lt;font data-font-src=&quot;https://fonts.googleapis.com/css?family=Fira+Code+Medium&quot; face=&quot;Fira Code Medium&quot;&gt;}&lt;/font&gt;&lt;/span&gt;&lt;/div&gt;&lt;div style=&quot;line-height: 137%;&quot;&gt;&lt;span style=&quot;background-color: initial;&quot;&gt;&lt;font data-font-src=&quot;https://fonts.googleapis.com/css?family=Fira+Code+Medium&quot; face=&quot;Fira Code Medium&quot;&gt;return visitorOutput;&lt;/font&gt;&lt;/span&gt;&lt;/div&gt;&lt;/div&gt;&lt;/div&gt;&lt;/div&gt;&lt;/div&gt;&lt;/div&gt;&lt;/div&gt;&lt;/div&gt;&lt;/div&gt;&lt;/div&gt;&lt;/div&gt;" style="rounded=0;whiteSpace=wrap;html=1;fontColor=#494949;strokeColor=#C3C3C3;fillColor=#EBEBEB;align=left;verticalAlign=middle;spacingLeft=2;spacingRight=1;strokeWidth=2;" vertex="1" parent="1">
          <mxGeometry x="-361.25" y="310" width="392.5" height="100" as="geometry" />
        </mxCell>
        <mxCell id="qX70TGgQci-9ZfQVWdHT-213" style="edgeStyle=orthogonalEdgeStyle;rounded=0;orthogonalLoop=1;jettySize=auto;html=1;dashed=1;strokeColor=#C3C3C3;strokeWidth=2;align=center;verticalAlign=middle;fontFamily=Helvetica;fontSource=https%3A%2F%2Ffonts.googleapis.com%2Fcss%3Ffamily%3DFira%2BCode%2BMedium;fontSize=11;fontColor=default;labelBackgroundColor=default;startArrow=none;startFill=0;startSize=8;endArrow=none;endFill=0;endSize=8;sourcePerimeterSpacing=1;targetPerimeterSpacing=1;" edge="1" parent="1" source="qX70TGgQci-9ZfQVWdHT-192" target="qX70TGgQci-9ZfQVWdHT-212">
          <mxGeometry relative="1" as="geometry" />
        </mxCell>
      </root>
    </mxGraphModel>
  </diagram>
</mxfile>
